<svg xmlns="http://www.w3.org/2000/svg" viewBox="0 0 24.52 24.52"><defs><style>.cls-1{fill:#dad8c8;}.cls-2{fill:#1d1e1c;}.cls-3{fill:#b0b0b0;}</style></defs><g id="Layer_2" data-name="Layer 2"><g id="Layer_1-2" data-name="Layer 1"><rect class="cls-1" width="24.52" height="24.52" transform="translate(24.52 0) rotate(90)"/><rect class="cls-2" x="-1.79" y="16.09" width="10.22" height="2.55" transform="translate(20.69 14.05) rotate(90)"/><rect class="cls-2" x="17.37" y="17.37" width="7.66" height="2.55" transform="translate(39.85 -2.55) rotate(90)"/><rect class="cls-2" x="13.28" y="16.35" width="5.62" height="2.55" transform="translate(33.72 1.53) rotate(90)"/><rect class="cls-2" x="4.6" y="12.26" width="7.66" height="2.55" transform="translate(21.97 5.11) rotate(90)"/><rect class="cls-2" x="-0.51" y="4.6" width="7.66" height="2.55" transform="translate(9.2 2.55) rotate(90)"/><rect class="cls-2" x="18.65" y="3.32" width="5.11" height="2.55" transform="translate(25.8 -16.6) rotate(90)"/><rect class="cls-3" x="12.26" y="4.6" width="2.55" height="2.55" transform="translate(19.41 -7.66) rotate(90)"/><rect class="cls-3" x="7.15" y="4.6" width="2.55" height="2.55" transform="translate(14.3 -2.55) rotate(90)"/><rect class="cls-3" x="17.37" y="4.6" width="2.55" height="2.55" transform="translate(24.52 -12.77) rotate(90)"/><rect class="cls-2" x="14.81" y="14.81" width="6.39" height="2.55"/><rect class="cls-2" x="12.26" y="9.71" width="10.22" height="2.55"/><rect class="cls-2" x="2.04" y="2.04" width="18.31" height="2.55"/><rect class="cls-2" x="7.15" y="14.81" width="5.11" height="2.55"/><rect class="cls-2" x="2.04" y="19.92" width="18.73" height="2.55"/></g></g></svg>